<?xml version="1.0" encoding="UTF-8" standalone="no"?>
<!-- Generator: Adobe Illustrator 24.2.0, SVG Export Plug-In . SVG Version: 6.00 Build 0)  -->

<svg
   version="1.1"
   id="Layer_1"
   x="0px"
   y="0px"
   viewBox="0 0 726.45233 422.77066"
   xml:space="preserve"
   sodipodi:docname="MotorcycleRed.svg"
   width="726.45233"
   height="422.77066"
   inkscape:version="1.2.2 (732a01da63, 2022-12-09)"
   xmlns:inkscape="http://www.inkscape.org/namespaces/inkscape"
   xmlns:sodipodi="http://sodipodi.sourceforge.net/DTD/sodipodi-0.dtd"
   xmlns="http://www.w3.org/2000/svg"
   xmlns:svg="http://www.w3.org/2000/svg"><defs
   id="defs9243" /><sodipodi:namedview
   id="namedview9241"
   pagecolor="#ffffff"
   bordercolor="#000000"
   borderopacity="0.25"
   inkscape:showpageshadow="2"
   inkscape:pageopacity="0.0"
   inkscape:pagecheckerboard="0"
   inkscape:deskcolor="#d1d1d1"
   showgrid="false"
   inkscape:zoom="0.27314815"
   inkscape:cx="311.18644"
   inkscape:cy="256.27119"
   inkscape:window-width="1920"
   inkscape:window-height="1137"
   inkscape:window-x="-8"
   inkscape:window-y="-8"
   inkscape:window-maximized="1"
   inkscape:current-layer="Layer_1" />
<path
   d="m 217.59899,158.6 c -2,3.3 -3.7,6.4 -5.9,9.3 -0.8,1 -3.1,1.9 -4.1,1.5 -5,-2.2 -9.9,-4.8 -14.8,-7.4 -2.3,-1.2 -3.6,-1.1 -4.7,1.5 -3.8,8.7 -7.7,17.3 -11.8,25.9 -1.1,2.3 -0.8,3.5 1.4,4.9 34.2,22.2 53.4,53.9 59,93.9 2.3,16.7 1.5,33.5 -2.2,50.1 -1.8,8.3 -1.7,16.5 0.2,24.7 0.3,1.2 0.2,2.5 0.4,5 -7.5,-2.8 -14.1,-5.3 -21,-7.8 -20.4,34.1 -50.3,54.3 -90.4,58 -29.799997,2.7 -56.599997,-5.8 -80.099997,-24.3 -13,-10.2 -23.3,-22.8 -30.8,-37.6 C 5.3989928,341.6 1.0989928,326.1 0.19899275,309.7 c -1,-16.6 1.80000005,-32.5 7.70000005,-48 5.8000002,-15.4 14.8000002,-28.7 26.2000002,-40.4 -2.5,-3.1 -5,-6 -7.2,-9 -1.8,-2.4 -1.7,-3.8 1.9,-5.2 6.2,-2.4 12.7,-5.1 17.7,-9.3 14,-11.7 30.6,-16.7 47.9,-20 19.499997,-3.8 38.699997,-2 57.499997,4.2 2.6,0.9 3.9,0.4 5,-2.2 3.7,-8.4 7.7,-16.7 11.4,-25.1 0.5,-1.1 0.3,-2.6 0,-3.8 -1,-3.6 3.6,-10.2 7.3,-10.1 1.3,-3.1 2.7,-6.2 3.9,-9 -8.7,1.6 -17.4,3.1 -26,5 -1.6,0.4 -2.9,2.6 -4.3,3.9 -1.3,-1.4 -2.4,-3.7 -3.8,-3.9 -6.8,-1 -9.1,-5.6 -10.5,-11.3 -3.5,-14.4 -3.3,-28.9 -1.3,-43.5 0.9,-6.1 4.6,-9.4 10.6,-10.7 9,-2 17.7,0.1 26.5,1.5 8.9,1.4 17.2,4.5 25,9 5.2,3 9,2.4 13.6,-1.9 1.2,-1.1 3.1,-1.6 4,-2.9 1.2,-1.7 2.4,-3.9 2.4,-5.8 0.1,-12.1 -0.2,-24.2 -0.4,-36.3 0,-0.3 0,-0.6 0,-0.9 0.5,-10.7 -0.7,-8.3 8.2,-11.7 4.4,-1.7 5.7,-3.6 4.5,-8.3 -1.2,-4.5 -2.2,-9.4 0.1,-14 8.1,3.1 16.2,32.7 10.7,39.2 -5.5,-3.9 -6.4,-10.5 -9.3,-16.4 -3.3,1.3 -6.5,2.4 -9.6,4 -0.9,0.5 -1.6,2.3 -1.7,3.6 -0.1,14 -0.2,28 -0.1,42 0,1.3 0,2.9 0.7,3.8 0.7,0.9 2.6,1.6 3.5,1.3 3.6,-1.5 6.8,-2.9 9.9,1.2 1.6,2.1 9.1,1.5 11.5,0.1 1.1,-0.7 3.3,-1.1 4.2,-0.5 5.2,3.5 11.1,3.7 17,3.8 1.2,0 3.3,0.4 3.3,0.8 0.2,2.8 0.2,5.6 -0.1,8.4 0,0.4 -2.2,0.8 -3.3,0.8 -6.4,-0.3 -12.7,-0.5 -19.1,-1.2 -1.7,-0.2 -3.4,-1.7 -5.6,-2.9 0.8,2.7 1.7,5.5 2.3,8.3 0.3,1.2 0,2.6 -0.3,3.8 -1.4,4.7 -3,9.3 -4.1,14.5 11,-9.5 24.1,-10.4 38.1,-10.2 -1.8,-4.1 0.4,-4.8 3.3,-5.1 7.2,-0.7 14.2,-0.4 21.3,2.2 -0.3,1.4 -0.5,2.6 -0.9,4.2 22.7,2.7 43.5,10.7 64.1,19.3 9.3,3.9 17.9,9 27,13.4 1.6,0.8 4,1.2 5.5,0.5 4.6,-2 8.3,-1.4 12.7,1.1 3.3,1.9 7.8,2.4 11.8,2.5 24.1,1 48.1,-0.4 71.9,-5 0.9,-0.2 1.7,-0.4 2.6,-0.5 11.1,-1.5 11.8,-0.9 12.5,10.3 0.1,0.9 -1.1,2.2 -2.1,2.6 -1.3,0.6 -2.8,0.7 -4.3,0.7 -3.9,0.2 -6.2,1.7 -8.3,5.5 -3.5,6.5 -10.3,8.5 -17.5,9.1 -5,0.4 -10,1.2 -15,1.9 -0.6,0.1 -1.2,0.7 -2.1,1.2 1.1,1 2,1.8 3.9,3.5 -4.1,0 -7.1,0 -10.1,0 -0.1,0.3 -0.1,0.6 -0.2,0.9 2.4,1.6 4.8,3.2 7.2,4.9 -0.1,0.3 -0.2,0.6 -0.3,0.9 -2.8,0 -5.5,0 -9.7,0 3.3,2.2 5.6,3.7 7.9,5.2 -0.1,0.3 -0.2,0.6 -0.3,0.9 -2.8,0 -5.6,0 -9.5,0 3.1,2.2 5.4,3.8 7.7,5.4 -0.1,0.3 -0.1,0.6 -0.2,0.9 -2.8,0 -5.7,0 -9.4,0 3.8,2.9 6.9,5.6 10.3,7.6 6.6,4 13.5,7.5 20.2,11.4 2.3,1.3 3.5,0.9 5.1,-1.1 11.7,-15.1 26.3,-26.7 43.2,-35.6 6.1,-3.2 10.7,-8.3 9.7,-16.3 -0.5,-4 1.5,-5.2 5.4,-5.2 29.2,-0.1 58.4,-0.3 87.6,-0.7 4,-0.1 5.6,1.3 5.7,5.1 0,1.9 0.5,3.8 0.5,5.7 0.1,3.1 1.5,4.5 4.2,6.2 14.7,9.3 30.6,16.9 42.6,30.1 1.6,1.8 3.2,2.3 6,2.2 5,-0.2 10.6,0.2 14.9,2.4 12,6.1 20,16.3 24.9,28.8 1.3,3.2 0.3,5.7 -2.9,7.2 -1.2,0.6 -2.3,1.2 -3.5,1.8 -4.8,2.1 -7.2,7.5 -5.9,12.6 1.8,7.2 3.3,14.5 5,21.7 1,4.3 -0.8,5.6 -4.8,5.3 -3.6,-0.3 -7.3,-0.5 -11.4,-0.7 0.1,1.2 0.1,2.5 0.4,3.7 12.1,59.3 -20.7,115.7 -78.2,134.5 -45.3,14.8 -98.1,-3 -126.1,-42.8 -2.4,-3.3 -4.7,-4.3 -8.6,-4 -36,2.7 -71.9,5.3 -107.9,7.8 -20.8,1.4 -41.5,-0.1 -61.7,-5.3 -25.5,-6.6 -44.8,-21.5 -57,-44.9 -9.8,-18.9 -17.9,-38.6 -15.2,-60.6 0.9,-7.4 3.8,-14.5 5.5,-21.9 0.4,-1.9 0.3,-4.3 -0.3,-6.1 -3.6,-10.2 -7,-20.4 -11.3,-30.3 -7.4,-16.9 -15.4,-33.5 -23.2,-50.2 -0.1,0.1 -0.4,-0.1 -1.2,-0.7 z m -80.6,67.3 c -20.4,-8 -55.399997,-4.4 -79.499997,19.7 -24.6,24.7 -31.1,63.7 -15.2,94.6 16.3,31.7 50.6,49.4 84.699997,43.8 35.5,-5.9 59,-33.6 64.5,-57.9 -14.2,-3.5 -28.5,-7 -42.8,-10.2 -1,-0.2 -2.9,1.4 -3.5,2.6 -10.2,22.1 -40.1,27 -56.099997,8.7 -10.1,-11.6 -12.5,-25 -5.8,-38.9 6.2,-12.9 16.999997,-19.5 31.499997,-19.8 2.6,0 3.9,-0.7 4.9,-3.1 2.7,-6.1 5.8,-12 8.5,-18.2 3.1,-7 5.9,-14.2 8.8,-21.3 z m 478.1,107.2 c 1.5,0.1 2.5,0.3 3.5,0.3 15.6,-0.3 31.2,-0.6 46.7,-1.2 1.3,0 3.3,-1.9 3.5,-3.2 1.2,-6 2.5,-12 2.8,-18.1 1.1,-20.7 -5.3,-39.1 -18.3,-55.1 -1.1,-1.4 -3.6,-2.5 -5.5,-2.5 -5.2,0.1 -10.4,1 -15.6,1.3 -8.7,0.5 -17.5,1.7 -26.1,1 -10.4,-0.9 -19.9,-4.5 -24.2,-15.7 -0.5,-1.3 -3.1,-2.5 -4.8,-2.4 -3.1,0.1 -2.2,2.7 -2,4.7 0.8,10 1.7,19.9 2.6,29.9 0.1,0.9 0.6,1.8 0.9,2.9 10.6,-3.3 20.6,-3.1 30.2,2.6 0.7,0.4 2.4,0.2 3.1,-0.4 1.8,-1.6 3.1,-1.7 4.9,0 0.7,0.6 2.3,0.9 3.2,0.5 2.5,-1.1 4.9,-2.6 7.8,-4.3 0.6,2.9 1.2,6 1.9,9.3 -3.7,-0.4 -6.6,-0.8 -10,-1.1 2,7.5 4.1,13.9 5.4,20.4 2.3,11.9 -1.9,21.9 -10,31.1 z m -459.4,-99.6 c -6.6,13.5 -13.1,26.7 -19.4,39.9 -0.5,1 0,3.1 0.8,3.9 8.3,7.9 12.1,17.6 11.4,28.9 -0.2,2.8 0.8,3.3 2.8,3.8 12,3.1 24,6.2 35.9,9.3 6,1.6 6.5,1.2 7.3,-5.2 2.5,-21 -2.2,-40.2 -14.1,-57.7 -6.5,-9.3 -14.6,-16.8 -24.7,-22.9 z m 250.8,-6.5 c 0.2,1.3 0.2,2.2 0.6,3 1.9,3.6 -0.4,5.4 -3.2,5.1 -2.4,-0.3 -5.2,-2.3 -6.5,-4.3 -2.3,-3.6 -3.7,-7.8 -5.5,-11.7 -0.5,-0.1 -1.1,-0.1 -1.6,-0.2 -0.8,2.5 -1.9,5 -2.2,7.6 -0.4,3.9 0.3,8 -0.6,11.7 -0.9,4.1 -3.1,8 -5.1,12.7 -3.1,0.8 -3,0.7 -5.9,-2.9 -0.5,-0.7 -1.8,-0.8 -2.7,-1 -6.9,-1.7 -9.7,-5.4 -9.4,-12.6 0.1,-2 0.3,-4 0.5,-6 -5,-0.6 -4.6,3 -5,5.9 -4.4,0.3 -8.6,0.6 -12.9,0.9 0,0.5 0.1,1 0.1,1.4 1.1,0.4 2.2,0.8 3.9,1.4 -3.5,0.3 -6.4,0.6 -9.2,0.8 0,0.3 0.1,0.6 0.1,0.9 2.6,0.1 5.2,0.3 7.8,0.4 0,0.2 0,0.4 0,0.6 -2.5,0.3 -5,0.7 -7.6,1 0,0.3 0,0.6 0,0.9 2.9,0.3 5.9,0.6 8.8,0.9 0,0.2 0,0.3 0,0.5 -3.2,0.2 -6.5,0.3 -9.7,0.5 0,0.3 0,0.5 -0.1,0.8 2.6,0.3 5.3,0.5 7.9,0.8 0,0.2 0,0.4 0,0.6 -2.9,0.2 -5.8,0.4 -8.7,0.6 0,0.3 0,0.6 0,0.9 2.6,0.4 5.2,0.9 7.8,1.3 0,0.2 -0.1,0.5 -0.1,0.7 -2.6,0.1 -5.2,0.2 -7.8,0.3 0,0.3 0,0.5 0,0.8 2.4,0.3 4.7,0.5 7.1,0.8 0,0.2 0,0.5 -0.1,0.7 -2.3,0.1 -4.6,0.3 -6.9,0.4 0,0.3 0,0.5 0,0.8 2.3,0.4 4.7,0.8 7,1.2 0,0.3 0,0.5 -0.1,0.8 -2.5,0.2 -5,0.4 -7.5,0.6 0,0.2 0,0.4 0,0.6 2,0.2 4,0.5 6,0.7 0,0.2 0,0.4 0,0.6 -1.9,0.3 -3.8,0.6 -5.7,0.8 0,0.2 0,0.4 0,0.6 1.8,0.4 3.7,0.9 6.2,1.4 -2.6,0.5 -4.4,0.9 -6.2,1.3 0.1,0.2 0.1,0.5 0.2,0.7 2,0.2 4.1,0.3 6.1,0.5 0,0.1 0,0.3 0,0.4 -2.1,0.3 -4.2,0.6 -6.3,0.8 0,0.2 0.1,0.5 0.1,0.7 1.6,0.3 3.3,0.6 4.9,0.9 0,0.2 0,0.4 0,0.7 -2,0.4 -4,0.7 -6,1.1 2.4,2.1 5.4,3.3 6,5.3 1,3.4 3.2,3.2 5.6,3.5 11.7,1.5 23.6,2.2 35.1,4.7 7.1,1.5 12.5,1.1 19.1,-2.4 6.6,-3.5 8.7,-7.3 8,-14.2 -0.4,-3.7 -1.4,-5.9 -5,-6.3 -2.8,-0.3 -3.1,-2 -2.2,-4 0.7,-1.7 1.7,-4.1 3.1,-4.5 4.4,-1.2 3.8,-4.4 3.7,-7.5 -0.1,-2.8 -0.2,-5.6 0,-8.3 0.3,-4 -1.3,-6.5 -5.9,-7.7 z m 129.4,139.3 c 14.9,16 43.2,27.9 73.7,20.6 21.3,-5.1 37.7,-17 49.5,-35.3 -10.1,1.7 -19.8,3.4 -29.5,4.9 -3.9,0.6 -7.8,0.5 -11.7,0.9 -16.8,1.8 -33.6,3.6 -50.4,5.4 -10.3,1.1 -20.6,2.2 -31.6,3.5 z m -242.3,-156.6 c -1,-1.7 -1.9,-2.6 -1.8,-3.4 0.1,-4.8 0.5,-9.5 0.7,-14.3 0.2,-5.2 2,-7.1 7.3,-7.1 6.1,0 12.3,0.1 18.4,0.1 10.2,0 20.4,0 30.7,0 -1.7,-0.7 -3.3,-0.9 -5,-1 -23.1,-0.4 -46.1,-1 -69.2,-1.2 -8.3,-0.1 -16.3,-1.3 -23.7,-5 -3.2,-1.6 -6.1,-3.5 -9.5,-5.5 3.1,8.3 3.1,8.2 11.1,9.8 1.6,0.3 3.6,1.8 4.1,3.2 0.5,1.1 -0.7,3.2 -1.6,4.5 -0.9,1.3 -2.5,2 -3.5,3.2 -0.8,0.9 -1.7,2.3 -1.5,3.3 0.6,3.7 1.2,7.5 2.5,11 2.8,7.5 6,14.9 9.1,22.3 0.6,1.4 1.4,2.7 2.1,4.2 4.3,-2.9 8.2,-5.4 11.9,-8.2 0.8,-0.6 1.4,-2.2 1.3,-3.3 -0.3,-2.7 1.1,-3.8 3.3,-4.9 4.2,-2.2 8.6,-4.9 13.3,-7.7 z m 19.7,33.1 c 0,-0.4 0,-0.7 0,-1.1 -3,-0.3 -5.9,-0.5 -8.9,-0.8 0,-0.2 0.1,-0.5 0.1,-0.7 3.1,-0.1 6.3,-0.3 9.4,-0.4 0,-0.3 0,-0.7 0,-1 -2.9,-0.2 -5.8,-0.4 -8.7,-0.5 0,-0.1 0,-0.3 0,-0.4 1.1,-0.3 2.2,-0.6 3.3,-0.8 -5.8,-0.1 -11.6,-1.9 -16.6,2.9 -1.5,1.4 -5.5,2 -7.3,1 -2.3,-1.2 -3.5,-1.3 -5.3,0.1 -2.1,1.6 -4.2,3.2 -6.4,4.6 -2.3,1.6 -2.3,3.2 -1,5.6 3.9,6.8 7.6,13.8 11.5,20.7 1.2,2.2 2.7,4.3 4,6.5 0.2,-0.5 0.3,-1 0.5,-1.5 3.8,-0.2 7.5,-0.8 11.3,-0.5 5.6,0.3 11,1 13.1,-6.1 0.2,-0.5 1.1,-0.9 2.1,-1.5 -2.1,-0.4 -3.6,-0.8 -5.2,-1.1 0,-0.2 0.1,-0.4 0.1,-0.6 1.5,-0.3 3,-0.6 4.5,-0.8 0,-0.2 0,-0.4 0,-0.6 -1.8,-0.3 -3.6,-0.7 -6.4,-1.2 2.8,-0.3 4.6,-0.6 6.3,-0.8 0,-0.2 0,-0.4 0,-0.6 -1.7,-0.4 -3.4,-0.8 -5.6,-1.3 2.3,-0.6 4,-1 6.9,-1.8 -3.1,-0.5 -4.8,-0.9 -6.6,-1.2 0,-0.2 0,-0.4 0,-0.6 1.9,-0.2 3.8,-0.4 5.7,-0.6 0,-0.3 -0.1,-0.5 -0.1,-0.8 -2.2,-0.2 -4.4,-0.3 -6.5,-0.5 0,-0.2 0,-0.4 0.1,-0.6 2.1,-0.4 4.3,-0.8 6.4,-1.2 0,-0.3 -0.1,-0.6 -0.1,-0.9 -2.4,-0.2 -4.7,-0.3 -7.1,-0.5 0,-0.2 0,-0.4 0,-0.5 2.4,-0.3 4.8,-0.7 7.2,-1 0,-0.2 -0.1,-0.4 -0.1,-0.6 -2.7,-0.1 -5.3,-0.3 -8,-0.4 0,-0.2 0,-0.4 -0.1,-0.7 2.7,-0.4 5.5,-0.8 8.2,-1.2 0,-0.3 0,-0.7 0,-1 -2.9,-0.1 -5.9,-0.3 -8.8,-0.4 0,-0.2 0,-0.4 0.1,-0.6 2.8,-0.3 5.6,-0.5 8.5,-0.8 0,-0.4 -0.1,-0.7 -0.1,-1.1 -3.5,0 -6.9,0 -10.4,0 0,-0.2 0,-0.5 0,-0.7 3.2,-0.9 6.6,-1.1 10,-1.4 z m 139.6,34.2 c 0.6,0.1 1.1,0.2 1.7,0.2 0.3,-1.5 0.8,-2.9 0.9,-4.4 2.2,-16.8 7,-32.8 15.3,-47.5 1.7,-3 1.5,-4.4 -1.6,-6 -13.3,-7 -26.4,-14.2 -39.7,-21.4 -0.9,-0.5 -1.9,-0.8 -2.9,-1.2 5.5,3.8 9,8.5 9.8,15.1 0.8,6.6 -2.3,11.9 -6.9,16.8 6.7,-2.4 12.9,-1.5 19.1,0.6 2.8,0.9 4.3,2.2 4.3,5.6 -0.2,7.7 0,15.5 0,23.2 0.1,6.3 0,12.7 0,19 z m 192.6,-29 c -14.1,-15.3 -43.4,-24.6 -58.7,-21 0.7,3.7 0.9,7.5 2.3,10.8 3.6,8.4 10.9,11.8 19.6,12.3 3.4,0.2 6.9,-0.3 10.4,-0.5 8.5,-0.5 17,-1 26.4,-1.6 z m -238,-85.2 c 1.6,1.5 2.9,2.7 4.1,3.8 3.4,3.1 8.2,5.5 10,9.4 3,6.2 8.1,9.1 13.6,11.4 3.6,1.5 7.9,1.3 11.8,1.9 0.1,-0.4 0.1,-0.7 0.2,-1.1 -2.5,-1.8 -5.1,-3.6 -7.6,-5.4 0.2,-0.4 0.4,-0.8 0.7,-1.3 2.4,0.2 4.8,0.3 8.5,0.6 -3.2,-2.1 -5.2,-3.5 -7.3,-4.9 0.1,-0.4 0.2,-0.7 0.3,-1.1 2.8,0 5.6,0 9.6,0 -3.3,-2.2 -5.6,-3.8 -7.9,-5.3 0.1,-0.4 0.2,-0.8 0.4,-1.1 2.7,0 5.5,0 8.2,0 0.1,-0.5 0.2,-1 0.3,-1.4 -2.9,-0.9 -5.8,-2.3 -8.8,-2.5 -6.7,-0.6 -13.4,-0.4 -20.1,-0.9 -5,-0.4 -9.9,-1.3 -16,-2.1 z m 2.1,23.6 c -0.2,0.6 -0.4,0.9 -0.4,1.2 0,4.2 -1.4,7.1 -6.2,7.3 -4.5,0.2 -6.7,-1.9 -7.2,-6.3 -0.1,-1 -2,-2.4 -3.1,-2.5 -4.5,-0.5 -9.1,-0.3 -13.5,-0.8 -3.2,-0.4 -4.1,1.6 -5,3.8 -0.9,2.3 0.1,3.5 2.4,4.1 0.5,0.1 0.9,1.2 1,1.9 0.7,4.3 1.2,8.7 1.9,13.1 3.2,-1.1 5.5,-1.9 7.9,-2.8 0.4,-7.2 1.1,-8 8.6,-9.4 1.6,4.6 3.2,9.2 4.7,13.4 3,-3.5 5.3,-7.2 8.5,-10 4.1,-3.7 4.7,-8.7 0.4,-13 z m -3.2,165.9 c -28.2,9 -56.8,11.9 -85.6,7.4 19,8.9 75.7,8.3 107,-1.6 -3.7,0.2 -7.5,0.7 -11.2,1.1 -2.4,0.3 -5.6,1.6 -7.1,0.5 -1.7,-1.1 -1.8,-4.5 -2.6,-6.9 -0.1,-0.2 -0.4,-0.4 -0.5,-0.5 z m -143.5,-87.4 c -8.4,19.6 19.3,77.8 41.1,86.6 -13.8,-10.9 -21.4,-25.1 -28.2,-39.7 -1.9,-4 -4.1,-8.8 -3.5,-12.8 0.6,-4.7 -0.3,-8.6 -1.7,-12.6 -2.2,-7 -4.9,-13.9 -7.7,-21.5 z m 270.3,-9.8 c 1.7,13 3.2,25.6 4.9,38.5 2.5,-1.3 4.2,-2.7 6.1,-3 2.9,-0.5 3.7,-2.3 3.3,-4.6 -1.5,-8.2 -3.2,-16.3 -4.9,-24.4 -0.2,-0.7 -1,-1.4 -1.7,-1.9 -2.6,-1.6 -5.1,-3 -7.7,-4.6 z m 5.1,41.6 c 0.1,1 0.3,2.4 0.4,3.9 1,7.8 2.1,15.6 2.8,23.4 0.5,5.9 -0.7,7 -6.5,7.9 -4.5,0.7 -8.9,1.4 -13.4,2.1 0.1,0.5 0.2,1 0.3,1.5 8.6,-1.4 17.4,-1.4 25.9,-4.6 -0.5,-1 -0.6,-1.4 -0.7,-1.5 -2.7,-1.6 -5.1,-3.4 -4.5,-7.2 0.6,-3.7 3.7,-2.9 6,-3.8 1.1,-0.4 2.4,-2 2.4,-3 -0.2,-3.9 -0.8,-7.8 -1.5,-11.6 -0.2,-1.2 -1.2,-2.8 -2.2,-3.3 -2.8,-1.5 -5.7,-2.5 -9,-3.8 z m -342.1,-143.8 c 0.6,0 1.1,0 1.7,-0.1 6.9,-15.2 13.8,-30.4 20.7,-45.7 0.8,-1.7 1.7,-3.4 2.2,-5.2 0.2,-0.7 -0.5,-1.7 -0.9,-2.5 -0.7,0.4 -1.4,0.8 -1.9,1.3 -0.5,0.5 -0.7,1.3 -1,1.9 -7.1,15.3 -14.1,30.6 -21.1,46 -0.5,1.2 0.2,2.8 0.3,4.3 z m 369.6,7.4 c 0,-0.3 0,-0.6 0,-0.9 -8.4,-0.3 -16.7,-0.7 -25.1,-0.9 -0.9,0 -2.4,0.9 -2.6,1.6 -0.6,2.4 -0.8,4.9 -1.2,7.5 10.2,-2.5 19.5,-4.9 28.9,-7.3 z m 35.2,-0.6 c 10.4,2.3 19.4,4.4 28.5,6.4 1,-7.5 -0.1,-8.8 -7.2,-8.3 -5.6,0.4 -11.3,0.7 -16.9,1.1 -1,0 -2.1,0.3 -4.4,0.8 z m -223,84 c -7.6,-4.9 -4.4,-12 -5.9,-18 -3.2,1.3 -5.3,8.1 -4.3,12.5 0.9,3.8 3.9,5.8 10.2,5.5 z m -18.5,-31.3 c 0.2,0.4 0.4,0.8 0.6,1.2 2.8,-0.9 6.8,1.1 8,-3.1 0.7,-2.5 2.3,-6.6 -2.7,-7.1 -2.1,3.1 -4,6 -5.9,9 z m 64.1,134.3 c 0.1,0.7 0.2,1.5 0.3,2.2 8.1,-1 16.1,-2.1 24.2,-3.1 -0.1,-0.5 -0.1,-1 -0.2,-1.5 -8.1,0.8 -16.2,1.6 -24.3,2.4 z m -57.2,-148.7 c 0.2,-4.3 2.5,-8 -0.2,-11.1 -1.4,-1.7 -4.6,-1.8 -6.6,-2.4 2.2,4.3 4.2,8.2 6.8,13.5 z M 90.098993,318.5 c 3.6,10.4 21.199997,18.3 34.199997,12.1 -14.8,3.5 -25.799997,-0.9 -34.199997,-12.1 z m 510.499997,16.3 c 10.5,-1.9 19.4,-13.4 19.3,-24.7 -2.4,11.4 -8.4,19.9 -19.3,24.7 z m -42.7,-65.3 c -0.6,0.2 -1.2,0.3 -1.8,0.5 1.6,5.8 -0.1,12.3 3.6,17.6 0.4,-0.1 0.9,-0.2 1.3,-0.3 -1.1,-5.9 -2.1,-11.9 -3.1,-17.8 z m -71.2,-114 c -0.2,-0.4 -0.4,-0.9 -0.6,-1.3 -4.3,1.8 -8.5,3.6 -12.8,5.4 0.2,0.4 0.4,0.8 0.6,1.3 4.6,-0.9 9.5,-1.4 12.8,-5.4 z m 60.7,85.2 c -0.5,-0.2 -1,-0.4 -1.5,-0.6 -1.9,1.6 -3.9,3.1 -5.8,4.7 0.1,0.4 0.1,0.9 0.2,1.3 2,0.3 4.8,1.4 5.7,0.6 1.2,-1.2 1,-3.9 1.4,-6 z m -83.3,101.8 c 0.1,0.4 0.1,0.7 0.2,1.1 5.5,-0.8 11,-1.6 16.5,-2.3 -0.1,-0.5 -0.2,-1.1 -0.3,-1.6 -5.5,0.8 -11,1.8 -16.4,2.8 z m 105.8,-113.5 c 2.3,3.8 5.6,3 9.3,-1.8 -3.2,0.7 -6,1.2 -9.3,1.8 z m -352.5,-138.7 c 1.5,-1.2 2.5,-2.1 4.5,-3.7 -2.3,-0.8 -3.9,-1.4 -6.4,-2.3 0.9,2.8 1.3,4.1 1.9,6 z"
   id="path9238"
   style="fill:#ca0000;fill-opacity:1" />
</svg>
